<svg width="20" height="20" viewBox="0 0 20 20" fill="none" xmlns="http://www.w3.org/2000/svg">
<path d="M10.6016 1.69132C5.5266 1.33298 1.33494 5.52465 1.69327 10.5997C1.99327 15.008 5.84327 18.333 10.2599 18.333H13.3349C13.7933 18.333 14.1683 17.958 14.1683 17.4997C14.1683 17.0413 13.7933 16.6663 13.3349 16.6663H10.2766C7.16827 16.6663 4.31827 14.6497 3.54327 11.6413C2.3016 6.80798 6.8016 2.29965 11.6349 3.54965C14.6516 4.31632 16.6683 7.16632 16.6683 10.2746V11.1913C16.6683 11.8497 16.0766 12.4997 15.4183 12.4997C14.7599 12.4997 14.1683 11.8497 14.1683 11.1913V10.1497C14.1683 8.05798 12.6849 6.17465 10.6183 5.88298C7.78494 5.47465 5.39327 7.92465 5.9016 10.7747C6.18494 12.3663 7.4266 13.683 9.0016 14.058C10.5349 14.4163 11.9933 13.9247 12.9516 12.9496C13.6933 13.9663 15.1766 14.4997 16.5349 13.958C17.6516 13.5163 18.3349 12.3747 18.3349 11.1747V10.2663C18.3349 5.84132 15.0099 1.99132 10.6016 1.69132ZM10.0016 12.4997C8.61827 12.4997 7.5016 11.383 7.5016 9.99965C7.5016 8.61632 8.61827 7.49965 10.0016 7.49965C11.3849 7.49965 12.5016 8.61632 12.5016 9.99965C12.5016 11.383 11.3849 12.4997 10.0016 12.4997Z" fill="#5D595A"/>
</svg>
