<svg width="91" height="20" viewBox="0 0 91 20" fill="none" xmlns="http://www.w3.org/2000/svg">
<g clip-path="url(#clip0_7046_305458)">
<path d="M18.25 18.25L13.1667 13.1667L10.925 10.925L4.16668 4.16667L2.99168 2.99167L1.75001 1.75L0.575012 2.925L2.50001 4.85833V15.8333C2.50001 16.75 3.25001 17.5 4.16668 17.5H15.1417L17.0667 19.425L18.25 18.25ZM4.16668 15.8333V6.525L9.86668 12.225L9.16668 13.1L7.50001 10.8333L5.00001 14.1667H11.8083L13.475 15.8333H4.16668ZM6.52501 4.16667L4.85835 2.5H15.8333C16.75 2.5 17.5 3.25 17.5 4.16667V15.1417L15.8333 13.475V4.16667H6.52501Z" fill="#5D595A"/>
</g>
<path d="M29.6506 15.5H28.358L32.0966 5.31818H33.3693L37.108 15.5H35.8153L32.7727 6.92898H32.6932L29.6506 15.5ZM30.1278 11.5227H35.3381V12.6165H30.1278V11.5227ZM39.7081 5.31818V15.5H38.5348V5.31818H39.7081ZM45.1781 7.86364V8.85795H41.2207V7.86364H45.1781ZM42.3741 6.03409H43.5474V13.3125C43.5474 13.6439 43.5955 13.8925 43.6916 14.0582C43.791 14.2206 43.917 14.33 44.0694 14.3864C44.2252 14.4394 44.3893 14.4659 44.5616 14.4659C44.6909 14.4659 44.7969 14.4593 44.8798 14.446C44.9627 14.4295 45.0289 14.4162 45.0787 14.4062L45.3173 15.4602C45.2377 15.4901 45.1267 15.5199 44.9842 15.5497C44.8417 15.5829 44.661 15.5994 44.4423 15.5994C44.1109 15.5994 43.786 15.5282 43.4679 15.3857C43.153 15.2431 42.8912 15.026 42.6824 14.7344C42.4769 14.4427 42.3741 14.0748 42.3741 13.6307V6.03409ZM52.2725 5.31818V15.5H51.0396V5.31818H52.2725ZM54.5856 15.5V7.86364H55.7191V9.05682H55.8185C55.9776 8.64915 56.2345 8.33262 56.5891 8.10724C56.9438 7.87855 57.3697 7.7642 57.8668 7.7642C58.3706 7.7642 58.7899 7.87855 59.1246 8.10724C59.4627 8.33262 59.7262 8.64915 59.9151 9.05682H59.9947C60.1902 8.66241 60.4835 8.34919 60.8746 8.11719C61.2657 7.88187 61.7347 7.7642 62.2816 7.7642C62.9644 7.7642 63.5228 7.97798 63.957 8.40554C64.3912 8.82978 64.6083 9.491 64.6083 10.3892V15.5H63.435V10.3892C63.435 9.82576 63.2809 9.42306 62.9727 9.18111C62.6644 8.93916 62.3015 8.81818 61.8839 8.81818C61.3469 8.81818 60.931 8.98059 60.636 9.3054C60.341 9.62689 60.1935 10.0346 60.1935 10.5284V15.5H59.0004V10.2699C59.0004 9.8357 58.8595 9.48603 58.5778 9.22088C58.296 8.95241 57.9331 8.81818 57.489 8.81818C57.1841 8.81818 56.899 8.89938 56.6339 9.06179C56.372 9.22419 56.1599 9.44957 55.9975 9.73793C55.8384 10.023 55.7589 10.3527 55.7589 10.7273V15.5H54.5856ZM69.0007 15.679C68.5168 15.679 68.0777 15.5878 67.6832 15.4055C67.2888 15.2199 66.9756 14.9531 66.7436 14.6051C66.5116 14.2538 66.3956 13.8295 66.3956 13.3324C66.3956 12.8949 66.4818 12.5402 66.6541 12.2685C66.8265 11.9934 67.0568 11.7779 67.3452 11.6222C67.6335 11.4664 67.9517 11.3504 68.2997 11.2741C68.651 11.1946 69.004 11.1316 69.3587 11.0852C69.8227 11.0256 70.1989 10.9808 70.4872 10.951C70.7789 10.9179 70.991 10.8632 71.1236 10.7869C71.2595 10.7107 71.3274 10.5781 71.3274 10.3892V10.3494C71.3274 9.8589 71.1932 9.47775 70.9247 9.20597C70.6596 8.93419 70.2569 8.7983 69.7166 8.7983C69.1565 8.7983 68.7173 8.92093 68.3991 9.16619C68.081 9.41146 67.8572 9.6733 67.728 9.9517L66.6143 9.55398C66.8132 9.08996 67.0784 8.72869 67.4098 8.47017C67.7446 8.20833 68.1091 8.02604 68.5036 7.9233C68.9013 7.81723 69.2924 7.7642 69.6768 7.7642C69.9221 7.7642 70.2038 7.79403 70.522 7.85369C70.8435 7.91004 71.1534 8.0277 71.4517 8.20668C71.7533 8.38565 72.0036 8.65578 72.2024 9.01705C72.4013 9.37831 72.5007 9.86222 72.5007 10.4688V15.5H71.3274V14.4659H71.2678C71.1882 14.6316 71.0556 14.8089 70.87 14.9979C70.6844 15.1868 70.4375 15.3475 70.1293 15.4801C69.821 15.6127 69.4448 15.679 69.0007 15.679ZM69.1797 14.625C69.6437 14.625 70.0348 14.5339 70.353 14.3516C70.6745 14.1693 70.9164 13.9339 71.0788 13.6456C71.2446 13.3572 71.3274 13.054 71.3274 12.7358V11.6619C71.2777 11.7216 71.1683 11.7763 70.9993 11.826C70.8336 11.8724 70.6413 11.9138 70.4226 11.9503C70.2071 11.9834 69.9967 12.0133 69.7912 12.0398C69.589 12.063 69.425 12.0829 69.299 12.0994C68.9941 12.1392 68.709 12.2038 68.4439 12.2933C68.1821 12.3795 67.9699 12.5104 67.8075 12.6861C67.6484 12.8584 67.5689 13.0937 67.5689 13.392C67.5689 13.7997 67.7197 14.108 68.0213 14.3168C68.3262 14.5223 68.7124 14.625 69.1797 14.625ZM77.7246 18.5227C77.1578 18.5227 76.6706 18.4498 76.263 18.304C75.8553 18.1615 75.5156 17.9725 75.2438 17.7372C74.9753 17.5052 74.7615 17.2566 74.6025 16.9915L75.5371 16.3352C75.6432 16.4744 75.7774 16.6335 75.9398 16.8125C76.1022 16.9948 76.3243 17.1522 76.606 17.2848C76.891 17.4207 77.2639 17.4886 77.7246 17.4886C78.3411 17.4886 78.8498 17.3395 79.2509 17.0412C79.6519 16.7429 79.8525 16.2756 79.8525 15.6392V14.0881H79.753C79.6668 14.2273 79.5442 14.3996 79.3851 14.6051C79.2293 14.8073 79.004 14.9879 78.709 15.147C78.4173 15.3028 78.0229 15.3807 77.5257 15.3807C76.9093 15.3807 76.3558 15.2348 75.8652 14.9432C75.378 14.6515 74.9919 14.2273 74.7069 13.6705C74.4251 13.1136 74.2843 12.4375 74.2843 11.642C74.2843 10.8598 74.4218 10.1787 74.6969 9.59872C74.972 9.01539 75.3548 8.56463 75.8453 8.24645C76.3359 7.92495 76.9026 7.7642 77.5456 7.7642C78.0428 7.7642 78.4372 7.84706 78.7289 8.01278C79.0239 8.17519 79.2492 8.3608 79.405 8.5696C79.5641 8.77509 79.6867 8.94413 79.7729 9.0767H79.8922V7.86364H81.0257V15.7188C81.0257 16.375 80.8766 16.9086 80.5783 17.3196C80.2833 17.7339 79.8856 18.0372 79.3851 18.2294C78.888 18.425 78.3345 18.5227 77.7246 18.5227ZM77.6848 14.3267C78.1555 14.3267 78.5532 14.219 78.878 14.0036C79.2028 13.7881 79.4498 13.4782 79.6188 13.0739C79.7878 12.6695 79.8723 12.1856 79.8723 11.6222C79.8723 11.072 79.7895 10.5864 79.6238 10.1655C79.458 9.74455 79.2128 9.41477 78.888 9.17614C78.5632 8.9375 78.1621 8.81818 77.6848 8.81818C77.1877 8.81818 76.7734 8.94413 76.4419 9.19602C76.1138 9.44792 75.8669 9.78598 75.7012 10.2102C75.5388 10.6345 75.4576 11.1051 75.4576 11.6222C75.4576 12.1525 75.5404 12.6214 75.7061 13.0291C75.8752 13.4335 76.1238 13.7517 76.4519 13.9837C76.7833 14.2124 77.1943 14.3267 77.6848 14.3267ZM86.3752 15.6591C85.6394 15.6591 85.0047 15.4967 84.4711 15.1719C83.9408 14.8438 83.5314 14.3864 83.2431 13.7997C82.958 13.2098 82.8155 12.5237 82.8155 11.7415C82.8155 10.9593 82.958 10.2699 83.2431 9.6733C83.5314 9.07339 83.9325 8.60606 84.4462 8.27131C84.9632 7.93324 85.5665 7.7642 86.2559 7.7642C86.6536 7.7642 87.0463 7.83049 87.4341 7.96307C87.8219 8.09564 88.1749 8.31108 88.4931 8.60938C88.8113 8.90436 89.0648 9.29545 89.2537 9.78267C89.4426 10.2699 89.5371 10.8698 89.5371 11.5824V12.0795H83.6507V11.0653H88.3439C88.3439 10.6345 88.2578 10.25 88.0854 9.91193C87.9164 9.57386 87.6744 9.30705 87.3596 9.11151C87.048 8.91596 86.6801 8.81818 86.2559 8.81818C85.7885 8.81818 85.3842 8.93419 85.0428 9.16619C84.7047 9.39489 84.4445 9.69318 84.2623 10.0611C84.08 10.429 83.9888 10.8234 83.9888 11.2443V11.9205C83.9888 12.4972 84.0882 12.986 84.2871 13.3871C84.4893 13.7848 84.7694 14.0881 85.1273 14.2969C85.4853 14.5024 85.9012 14.6051 86.3752 14.6051C86.6834 14.6051 86.9618 14.562 87.2104 14.4759C87.4623 14.3864 87.6794 14.2538 87.8617 14.0781C88.044 13.8991 88.1848 13.6771 88.2843 13.4119L89.4178 13.7301C89.2985 14.1146 89.098 14.4527 88.8162 14.7443C88.5345 15.0327 88.1865 15.258 87.7722 15.4205C87.3579 15.5795 86.8922 15.6591 86.3752 15.6591Z" fill="black"/>
<defs>
<clipPath id="clip0_7046_305458">
<rect width="20" height="20" fill="white"/>
</clipPath>
</defs>
</svg>
